<?xml version="1.0" encoding="utf-8"?>
<!-- Generator: Adobe Illustrator 21.0.2, SVG Export Plug-In . SVG Version: 6.00 Build 0)  -->
<svg version="1.1" id="Layer_1" xmlns="http://www.w3.org/2000/svg" xmlns:xlink="http://www.w3.org/1999/xlink" x="0px" y="0px"
	 viewBox="0 0 100 100" style="enable-background:new 0 0 100 100;" xml:space="preserve">
<path d="M71,5H9C6.8,5,5,6.8,5,9v82c0,2.2,1.8,4,4,4h62c2.2,0,4-1.8,4-4V9C75,6.8,73.2,5,71,5z M15,89h-4V11h4V89z M69,89H21V11h48
	V89z M87,5c-4.4,0-8,3.6-8,8v71h0c0,0.5,0.1,1.1,0.5,1.6l5,8c0,0,0,0,0,0.1c0.1,0.2,0.3,0.4,0.5,0.5c0,0,0.1,0,0.1,0.1
	c0.1,0.1,0.2,0.2,0.4,0.3c0,0,0.1,0,0.1,0.1c0,0,0.1,0,0.1,0.1c0.2,0.1,0.4,0.2,0.6,0.2c0,0,0,0,0.1,0C86.5,95,86.8,95,87,95
	s0.5,0,0.7-0.1c0,0,0,0,0.1,0c0.2-0.1,0.4-0.1,0.6-0.2c0,0,0.1,0,0.1-0.1c0,0,0.1,0,0.1-0.1c0.1-0.1,0.3-0.2,0.4-0.3
	c0,0,0.1,0,0.1-0.1c0.2-0.2,0.3-0.3,0.5-0.5c0,0,0,0,0-0.1l5-8c0.3-0.5,0.5-1,0.5-1.6h0V13C95,8.6,91.4,5,87,5z M89,83.1l-2,3.2
	l-2-3.2V23h4V83.1z M89,19h-4v-6c0-1.1,0.9-2,2-2s2,0.9,2,2V19z M29,25c0-1.1,0.9-2,2-2h28c1.1,0,2,0.9,2,2c0,1.1-0.9,2-2,2H31
	C29.9,27,29,26.1,29,25z M29,35c0-1.1,0.9-2,2-2h28c1.1,0,2,0.9,2,2c0,1.1-0.9,2-2,2H31C29.9,37,29,36.1,29,35z"/>
</svg>
