<?xml version="1.0" encoding="utf-8"?>
<!-- Generator: Adobe Illustrator 21.0.2, SVG Export Plug-In . SVG Version: 6.00 Build 0)  -->
<svg version="1.1" id="Layer_1" xmlns="http://www.w3.org/2000/svg" xmlns:xlink="http://www.w3.org/1999/xlink" x="0px" y="0px"
	 viewBox="0 0 100 100" style="enable-background:new 0 0 100 100;" xml:space="preserve">
<path d="M30.3,63.3h53.6c4.5,0,8.1-3.6,8.1-8V33.2c0-1-0.7-1.8-1.7-2l-64.1-9.8V13c0-0.8-0.5-1.5-1.2-1.8l-14.2-6
	c-1-0.4-2.2,0-2.7,1.1c-0.4,1,0,2.2,1.1,2.6l12.9,5.5v8.7c0,0,0,0,0,0.1v6.5v25.6v15.7c0,4.4,3.6,8,8.1,8h0.5c-1.3,1.7-2,3.8-2,6
	c0,5.5,4.5,10.1,10.1,10.1S49,90.5,49,84.9c0-2.3-0.8-4.4-2-6h25.3c-1.3,1.7-2,3.8-2,6c0,5.5,4.5,10.1,10.1,10.1s10.1-4.5,10.1-10.1
	s-4.5-10.1-10.1-10.1H30.3c-2.2,0-4-1.8-4-4v-8.7C27.4,62.9,28.8,63.3,30.3,63.3z M44.9,84.9c0,3.3-2.7,6-6.1,6
	c-3.3,0-6.1-2.7-6.1-6s2.7-6,6.1-6C42.2,78.9,44.9,81.6,44.9,84.9z M86.4,84.9c0,3.3-2.7,6-6.1,6s-6.1-2.7-6.1-6s2.7-6,6.1-6
	S86.4,81.6,86.4,84.9z M26.2,25.4L88,34.9v20.4c0,2.2-1.8,4-4,4H30.3c-2.2,0-4-1.8-4-4V29.6V25.4z"/>
</svg>
