<?xml version="1.0" encoding="utf-8"?>
<!-- Generator: Adobe Illustrator 21.0.2, SVG Export Plug-In . SVG Version: 6.00 Build 0)  -->
<svg version="1.1" id="Layer_1" xmlns="http://www.w3.org/2000/svg" xmlns:xlink="http://www.w3.org/1999/xlink" x="0px" y="0px"
	 viewBox="0 0 100 100" style="enable-background:new 0 0 100 100;" xml:space="preserve">
<path d="M94.1,47.9c-6-5.9-12.1-10.6-18.3-14l11.1-8.5c1.3-1,1.6-2.9,0.5-4.2s-2.9-1.6-4.2-0.5L69.7,31c-7.1-2.9-14.4-4.3-21.8-4
	c-24.9,1-41.5,20.2-42.2,21c-1,1.1-1,2.8,0,3.9c0.4,0.5,7.2,8.3,18.4,14.3l-10.9,8.4c-1.3,1-1.6,2.9-0.5,4.2
	c0.6,0.8,1.5,1.2,2.4,1.2c0.6,0,1.3-0.2,1.8-0.6l13.4-10.3c5.3,2.1,11.2,3.6,17.7,3.9c0.7,0,1.4,0,2.1,0c15.3,0,30.1-7,44.1-20.9
	c0.6-0.6,0.9-1.3,0.9-2.1S94.7,48.4,94.1,47.9z M12.2,50c4.8-4.7,18.3-16.2,36.1-17c5.3-0.2,10.6,0.6,15.9,2.3l-6.7,5.2
	C55.3,39,52.8,38,50,38c-6.6,0-12,5.4-12,12c0,1.7,0.3,3.3,1,4.7l-9.6,7.4C21.1,58.2,15,52.8,12.2,50z M58,50c0,4.4-3.6,8-8,8
	c-1.5,0-2.8-0.4-4-1.1l11.7-9.1C57.9,48.5,58,49.3,58,50z M42,50c0-4.4,3.6-8,8-8c1.5,0,2.8,0.4,4,1.1l-11.7,9.1
	C42.1,51.5,42,50.7,42,50z M48.2,67c-4.4-0.2-8.6-1-12.4-2.3l6.8-5.2c2,1.6,4.6,2.5,7.4,2.5c6.6,0,12-5.4,12-12c0-1.7-0.3-3.3-1-4.7
	l9.5-7.3C76.3,40.8,82,44.8,87.7,50C74.9,61.8,61.7,67.5,48.2,67z"/>
</svg>
