<?xml version="1.0" encoding="utf-8"?>
<!-- Generator: Adobe Illustrator 21.0.2, SVG Export Plug-In . SVG Version: 6.00 Build 0)  -->
<svg version="1.1" id="Layer_1" xmlns="http://www.w3.org/2000/svg" xmlns:xlink="http://www.w3.org/1999/xlink" x="0px" y="0px"
	 viewBox="0 0 100 100" style="enable-background:new 0 0 100 100;" xml:space="preserve">
<path d="M73.3,15.1h-6.2L67,14.3c-0.3-1.4-1.5-2.3-2.9-2.3h-3.5V8c0-1.7-1.3-3-3-3H42.4c-1.7,0-3,1.3-3,3v3.9H36
	c-1.4,0-2.6,1-2.9,2.3l-0.2,0.9h-6.2c-5,0-9,4-9,9V86c0,5,4,9,9,9h46.7c5,0,9-4,9-9V24.1C82.3,19.2,78.3,15.1,73.3,15.1z M38.3,17.9
	h4.1c1.7,0,3-1.3,3-3V11h9.1v3.9c0,1.7,1.3,3,3,3h4.1l0.8,3.2H37.6L38.3,17.9z M76.3,86c0,1.6-1.3,3-3,3H26.7c-1.7,0-3-1.4-3-3V24.1
	c0-1.7,1.3-3,3-3h4.8l-0.5,2.4c-0.2,0.9,0,1.8,0.6,2.5c0.6,0.7,1.4,1.1,2.3,1.1h32.4c0.9,0,1.8-0.4,2.3-1.1c0.6-0.7,0.8-1.7,0.6-2.5
	l-0.5-2.4h4.8c1.7,0,3,1.3,3,3V86z M69.2,38.4c0,1.1-0.9,2-2,2H42.9c-1.1,0-2-0.9-2-2c0-1.1,0.9-2,2-2h24.3
	C68.3,36.4,69.2,37.3,69.2,38.4z M36.8,38.4c0,1.1-0.9,2-2,2h-2c-1.1,0-2-0.9-2-2c0-1.1,0.9-2,2-2h2C35.9,36.4,36.8,37.3,36.8,38.4z
	 M69.2,51.5c0,1.1-0.9,2-2,2H42.9c-1.1,0-2-0.9-2-2c0-1.1,0.9-2,2-2h24.3C68.3,49.5,69.2,50.4,69.2,51.5z M36.8,51.5
	c0,1.1-0.9,2-2,2h-2c-1.1,0-2-0.9-2-2c0-1.1,0.9-2,2-2h2C35.9,49.5,36.8,50.4,36.8,51.5z M69.2,64.7c0,1.1-0.9,2-2,2H42.9
	c-1.1,0-2-0.9-2-2c0-1.1,0.9-2,2-2h24.3C68.3,62.7,69.2,63.6,69.2,64.7z M36.8,64.7c0,1.1-0.9,2-2,2h-2c-1.1,0-2-0.9-2-2
	c0-1.1,0.9-2,2-2h2C35.9,62.7,36.8,63.6,36.8,64.7z M69.2,77.8c0,1.1-0.9,2-2,2H42.9c-1.1,0-2-0.9-2-2c0-1.1,0.9-2,2-2h24.3
	C68.3,75.8,69.2,76.7,69.2,77.8z M36.8,77.8c0,1.1-0.9,2-2,2h-2c-1.1,0-2-0.9-2-2c0-1.1,0.9-2,2-2h2C35.9,75.8,36.8,76.7,36.8,77.8z
	"/>
</svg>
