<?xml version="1.0" encoding="utf-8"?>
<!-- Generator: Adobe Illustrator 21.0.2, SVG Export Plug-In . SVG Version: 6.00 Build 0)  -->
<svg version="1.1" id="Layer_1" xmlns="http://www.w3.org/2000/svg" xmlns:xlink="http://www.w3.org/1999/xlink" x="0px" y="0px"
	 viewBox="0 0 100 100" style="enable-background:new 0 0 100 100;" xml:space="preserve">
<path d="M86.8,69.9L72,59.8c-0.1,0-0.1-0.1-0.2-0.1c-1-0.6-1.7-1.7-1.7-2.9l0-5c1.9-2.3,3.3-5.6,3.9-7.3c2.5-1.7,3.2-4.8,3.3-5.2
	c0-0.2,0.1-0.4,0.1-0.7v-6c0-1.4-0.6-2.6-1.2-3.4c-0.1-2.5-0.6-8.4-2.8-13.4c-3.2-7.3-13.5-7.2-14.5-7.2h-0.4
	c-1,0-11.2-0.1-14.5,7.2c-0.5,1.1-0.9,2.2-1.2,3.3c-3.8-1.8-7.4-1.8-7.5-1.8h-1.4c-0.4,0-9.5-0.2-14.1,7.6
	c-2.7,4.6-3.4,8.3-3.5,10.7c-0.1,1.9-0.3,3.5-0.6,5c-0.8,3.4-2.6,8.5-6.3,13.9C8,56.8,7.4,61,11.5,64c2,1.4,5.1,1.6,8.9,1.5
	c-1.7,1.3-3.7,2.8-5.5,4.2c-0.5,0.4-4.9,3.7-6.9,7.6c-1.7,3.4-1.7,5.1-1.6,6.5l0,0.2c0,0.8,0,4.4,0,4.4c0,0.8,0.3,1.6,0.9,2.1
	c0.6,0.6,1.3,0.9,2.1,0.9h81.2c1.6,0,3-1.4,3-3v-5.8C93.6,77.5,91,72.7,86.8,69.9z M23.9,82.6v2.8H12.5c0-0.6,0-1.2,0-1.4
	c0-0.2,0-0.3,0-0.5c0-0.5-0.1-1.3,1-3.5c1.1-2.2,4-4.7,5.1-5.5c3.9-3,8.5-6.4,9.1-6.8c0.3-0.2,0.6-0.3,0.8-0.5c1.3-0.9,2-2.4,1.9-4
	c-0.1-1.6-1-2.9-2.4-3.5c-0.5-0.2-1-0.4-1.6-0.4c-1,0-2.3,0-3.8,0.1c-2,0.1-6.6,0.4-7.6-0.2c-0.7-0.5-0.8-0.8-0.5-1.2
	c4.2-6.1,6.1-12,7.1-15.8c0.5-1.9,0.7-3.9,0.8-6.3c0-1.3,0.4-4.1,2.6-7.8c2.8-4.7,8.5-4.7,8.8-4.7h1.5c0.2,0,3.4,0,6.2,1.9
	c-0.2,1.7-0.3,3.1-0.4,4c-0.6,0.8-1.2,2-1.2,3.4v6c0,0.2,0,0.4,0.1,0.7c0.1,0.4,0.8,3.4,3.3,5.2c0.6,1.7,2,4.9,3.9,7.3l0,5
	c0,1.2-0.6,2.3-1.7,2.9c0,0-0.1,0.1-0.2,0.1l-14.9,10C26.4,72.7,23.9,77.5,23.9,82.6z M87.6,85.4H29.9v-2.8c0-3.1,1.5-6,4.1-7.7
	l14.8-10c2.8-1.7,4.5-4.7,4.5-8l0-6.2c0-0.8-0.3-1.6-0.9-2.2c-1.5-1.5-3.1-5.1-3.7-7c-0.3-0.8-0.9-1.5-1.7-1.8
	c-0.4-0.2-0.8-0.9-0.9-1.4V33c0.1-0.1,0.2-0.3,0.3-0.4c0.6-0.6,0.9-1.3,0.9-2.1c0-0.1,0-6.9,2.3-12.1c1.7-3.8,8.8-3.7,8.9-3.7H59
	c0.1,0,7.2-0.1,8.9,3.7c2.3,5.1,2.3,12,2.3,12.1c0,0.8,0.3,1.5,0.9,2.1c0.1,0.1,0.3,0.3,0.3,0.5v5.4c-0.2,0.5-0.5,1.2-0.9,1.4
	c-0.8,0.3-1.4,1-1.7,1.8c-0.6,1.9-2.2,5.5-3.7,7c-0.6,0.6-0.9,1.4-0.9,2.2l0,6.2c0,3.2,1.7,6.3,4.5,8l14.8,10
	c2.6,1.7,4.1,4.6,4.1,7.7V85.4z"/>
</svg>
